{
  "accessors": [
    {
      "bufferView": 2,
      "componentType": 5126,
      "count": 2663,
      "max": [
        0.008299999870359898,
        0.0026000002399086952,
        0.00829494372010231
      ],
      "min": [
        -0.008299999870359898,
        -0.0005900000687688589,
        -0.00829494372010231
      ],
      "type": "VEC3"
    },
    {
      "bufferView": 2,
      "byteOffset": 31956,
      "componentType": 5126,
      "count": 2663,
      "max": [
        1.0,
        1.0,
        0.9993908405303955
      ],
      "min": [
        -1.0,
        -1.0,
        -0.9999557733535767
      ],
      "type": "VEC3"
    },
    {
      "bufferView": 3,
      "componentType": 5126,
      "count": 2663,
      "max": [
        0.9993909001350403,
        1.0,
        1.0,
        1.0
      ],
      "min": [
        -0.9993909001350403,
        -1.0,
        -1.0,
        -1.0
      ],
      "type": "VEC4"
    },
    {
      "bufferView": 1,
      "componentType": 5126,
      "count": 2663,
      "max": [
        1.0,
        1.0
      ],
      "min": [
        0.0,
        0.0
      ],
      "type": "VEC2"
    },
    {
      "bufferView": 0,
      "componentType": 5125,
      "count": 7512,
      "type": "SCALAR"
    },
    {
      "bufferView": 2,
      "byteOffset": 63912,
      "componentType": 5126,
      "count": 7274,
      "max": [
        0.004100000020116568,
        -0.000699999975040555,
        0.004097502212971449
      ],
      "min": [
        -0.004100000020116568,
        -0.002599300816655159,
        -0.004097502212971449
      ],
      "type": "VEC3"
    },
    {
      "bufferView": 2,
      "byteOffset": 151200,
      "componentType": 5126,
      "count": 7274,
      "max": [
        1.0,
        1.0,
        0.9993908405303955
      ],
      "min": [
        -1.0,
        -0.9995339512825012,
        -0.9993908405303955
      ],
      "type": "VEC3"
    },
    {
      "bufferView": 3,
      "byteOffset": 42608,
      "componentType": 5126,
      "count": 7274,
      "max": [
        0.9997677206993103,
        0.9999591112136841,
        0.9999961256980896,
        1.0
      ],
      "min": [
        -0.9997373819351196,
        -1.0,
        -1.0,
        -1.0
      ],
      "type": "VEC4"
    },
    {
      "bufferView": 1,
      "byteOffset": 21304,
      "componentType": 5126,
      "count": 7274,
      "max": [
        1.0,
        1.0
      ],
      "min": [
        0.0,
        0.0
      ],
      "type": "VEC2"
    },
    {
      "bufferView": 0,
      "byteOffset": 30048,
      "componentType": 5125,
      "count": 36912,
      "type": "SCALAR"
    },
    {
      "bufferView": 2,
      "byteOffset": 238488,
      "componentType": 5126,
      "count": 368,
      "max": [
        0.0015215565217658877,
        -0.0005000000819563866,
        0.0015206296229735017
      ],
      "min": [
        -0.0015215565217658877,
        -0.000699999975040555,
        -0.0015206296229735017
      ],
      "type": "VEC3"
    },
    {
      "bufferView": 2,
      "byteOffset": 242904,
      "componentType": 5126,
      "count": 368,
      "max": [
        1.0,
        1.0,
        0.9993908405303955
      ],
      "min": [
        -1.0,
        -1.0,
        -0.9993908405303955
      ],
      "type": "VEC3"
    },
    {
      "bufferView": 3,
      "byteOffset": 158992,
      "componentType": 5126,
      "count": 368,
      "max": [
        0.5877853035926819,
        0.0001366022479487583,
        1.0,
        1.0
      ],
      "min": [
        -0.9993909001350403,
        -0.0001320021547144279,
        -1.0,
        -1.0
      ],
      "type": "VEC4"
    },
    {
      "bufferView": 1,
      "byteOffset": 79496,
      "componentType": 5126,
      "count": 368,
      "max": [
        1.0,
        1.0
      ],
      "min": [
        0.0,
        0.0
      ],
      "type": "VEC2"
    },
    {
      "bufferView": 1,
      "byteOffset": 82440,
      "componentType": 5126,
      "count": 368,
      "max": [
        1.0,
        1.0
      ],
      "min": [
        0.0,
        0.0
      ],
      "type": "VEC2"
    },
    {
      "bufferView": 1,
      "byteOffset": 85384,
      "componentType": 5126,
      "count": 368,
      "max": [
        1.0,
        1.0
      ],
      "min": [
        0.0,
        0.0
      ],
      "type": "VEC2"
    },
    {
      "bufferView": 1,
      "byteOffset": 88328,
      "componentType": 5126,
      "count": 368,
      "max": [
        1.0,
        1.0
      ],
      "min": [
        0.0,
        0.0
      ],
      "type": "VEC2"
    },
    {
      "bufferView": 0,
      "byteOffset": 177696,
      "componentType": 5125,
      "count": 1068,
      "type": "SCALAR"
    }
  ],
  "asset": {
    "extras": {
      "author": "HedvaRavenz (https://sketchfab.com/HedvaRavenz)",
      "license": "CC-BY-4.0 (http://creativecommons.org/licenses/by/4.0/)",
      "source": "https://sketchfab.com/3d-models/lamp-e9cd596b0a8d422182a3fa43ce30c26e",
      "title": "Lamp"
    },
    "generator": "Sketchfab-16.45.0",
    "version": "2.0"
  },
  "bufferViews": [
    {
      "buffer": 0,
      "byteLength": 181968,
      "name": "floatBufferViews",
      "target": 34963
    },
    {
      "buffer": 0,
      "byteLength": 91272,
      "byteOffset": 181968,
      "byteStride": 8,
      "name": "floatBufferViews",
      "target": 34962
    },
    {
      "buffer": 0,
      "byteLength": 247320,
      "byteOffset": 273240,
      "byteStride": 12,
      "name": "floatBufferViews",
      "target": 34962
    },
    {
      "buffer": 0,
      "byteLength": 164880,
      "byteOffset": 520560,
      "byteStride": 16,
      "name": "floatBufferViews",
      "target": 34962
    }
  ],
  "buffers": [
    {
      "byteLength": 685440,
      "uri": "scene.bin"
    }
  ],
  "extensionsUsed": [
    "KHR_materials_clearcoat",
    "KHR_materials_transmission",
    "KHR_materials_specular"
  ],
  "images": [
    {
      "uri": "textures/material_0_normal.png"
    },
    {
      "uri": "textures/material_1_normal.png"
    },
    {
      "uri": "textures/material_2_baseColor.png"
    },
    {
      "uri": "textures/material_2_metallicRoughness.png"
    },
    {
      "uri": "textures/material_2_normal.png"
    }
  ],
  "materials": [
    {
      "alphaMode": "BLEND",
      "extensions": {
        "KHR_materials_clearcoat": {
          "clearcoatFactor": 1.0,
          "clearcoatRoughnessFactor": 0.08
        },
        "KHR_materials_specular": {
          "specularColorFactor": [
            1.0,
            1.0,
            1.0
          ],
          "specularFactor": 0.782
        },
        "KHR_materials_transmission": {
          "transmissionFactor": 0.5
        }
      },
      "name": "material_0",
      "normalTexture": {
        "index": 0,
        "scale": 0.01
      },
      "pbrMetallicRoughness": {
        "baseColorFactor": [
          0.451668,
          0.451668,
          0.451668,
          0.5
        ],
        "metallicFactor": 0.0,
        "roughnessFactor": 0.02
      }
    },
    {
      "extensions": {
        "KHR_materials_specular": {
          "specularColorFactor": [
            1.0,
            1.0,
            1.0
          ],
          "specularFactor": 1.0
        }
      },
      "name": "material_1",
      "normalTexture": {
        "index": 1
      },
      "pbrMetallicRoughness": {
        "baseColorFactor": [
          0.799103,
          0.539474,
          0.165131,
          1.0
        ],
        "roughnessFactor": 0.125
      }
    },
    {
      "extensions": {
        "KHR_materials_clearcoat": {
          "clearcoatFactor": 0.45,
          "clearcoatRoughnessFactor": 0.133
        },
        "KHR_materials_specular": {
          "specularColorFactor": [
            1.0,
            1.0,
            1.0
          ],
          "specularFactor": 1.0
        }
      },
      "name": "material_2",
      "normalTexture": {
        "index": 4
      },
      "pbrMetallicRoughness": {
        "baseColorTexture": {
          "index": 2
        },
        "metallicRoughnessTexture": {
          "index": 3
        }
      }
    }
  ],
  "meshes": [
    {
      "name": "Object_0",
      "primitives": [
        {
          "attributes": {
            "NORMAL": 1,
            "POSITION": 0,
            "TANGENT": 2,
            "TEXCOORD_0": 3
          },
          "indices": 4,
          "material": 0,
          "mode": 4
        }
      ]
    },
    {
      "name": "Object_1",
      "primitives": [
        {
          "attributes": {
            "NORMAL": 6,
            "POSITION": 5,
            "TANGENT": 7,
            "TEXCOORD_0": 8
          },
          "indices": 9,
          "material": 1,
          "mode": 4
        }
      ]
    },
    {
      "name": "Object_2",
      "primitives": [
        {
          "attributes": {
            "NORMAL": 11,
            "POSITION": 10,
            "TANGENT": 12,
            "TEXCOORD_0": 13,
            "TEXCOORD_1": 14,
            "TEXCOORD_2": 15,
            "TEXCOORD_3": 16
          },
          "indices": 17,
          "material": 2,
          "mode": 4
        }
      ]
    }
  ],
  "nodes": [
    {
      "children": [
        1
      ],
      "matrix": [
        1.0,
        0.0,
        0.0,
        0.0,
        0.0,
        2.220446049250313e-16,
        -1.0,
        0.0,
        0.0,
        1.0,
        2.220446049250313e-16,
        0.0,
        0.0,
        0.0,
        0.0,
        1.0
      ],
      "name": "Sketchfab_model"
    },
    {
      "children": [
        2
      ],
      "name": "root"
    },
    {
      "children": [
        3,
        5,
        7
      ],
      "matrix": [
        1.0,
        0.0,
        0.0,
        0.0,
        0.0,
        2.220446049250313e-16,
        1.0,
        0.0,
        0.0,
        -1.0,
        2.220446049250313e-16,
        0.0,
        0.0,
        0.0,
        0.0,
        1.0
      ],
      "name": "GLTF_SceneRootNode"
    },
    {
      "children": [
        4
      ],
      "name": "_0"
    },
    {
      "mesh": 0,
      "name": "Object_4"
    },
    {
      "children": [
        6
      ],
      "name": "_1"
    },
    {
      "mesh": 1,
      "name": "Object_6"
    },
    {
      "children": [
        8
      ],
      "name": "_2"
    },
    {
      "mesh": 2,
      "name": "Object_8"
    }
  ],
  "samplers": [
    {
      "magFilter": 9729,
      "minFilter": 9987,
      "wrapS": 10497,
      "wrapT": 10497
    }
  ],
  "scene": 0,
  "scenes": [
    {
      "name": "Sketchfab_Scene",
      "nodes": [
        0
      ]
    }
  ],
  "textures": [
    {
      "sampler": 0,
      "source": 0
    },
    {
      "sampler": 0,
      "source": 1
    },
    {
      "sampler": 0,
      "source": 2
    },
    {
      "sampler": 0,
      "source": 3
    },
    {
      "sampler": 0,
      "source": 4
    }
  ]
}
